<?xml version="1.0" encoding="UTF-8" standalone="no"?>
<svg
   xmlns:dc="http://purl.org/dc/elements/1.1/"
   xmlns:cc="http://creativecommons.org/ns#"
   xmlns:rdf="http://www.w3.org/1999/02/22-rdf-syntax-ns#"
   xmlns:svg="http://www.w3.org/2000/svg"
   xmlns="http://www.w3.org/2000/svg"
   xmlns:sodipodi="http://sodipodi.sourceforge.net/DTD/sodipodi-0.dtd"
   xmlns:inkscape="http://www.inkscape.org/namespaces/inkscape"
   width="186.49232mm"
   height="169.8893mm"
   viewBox="0 0 186.49232 169.8893"
   version="1.1"
   id="svg8"
   inkscape:version="1.0.1 (c497b03c, 2020-09-10)"
   sodipodi:docname="bull-2.svg">
  <defs
     id="defs2" />
  <sodipodi:namedview
     id="base"
     pagecolor="#ffffff"
     bordercolor="#666666"
     borderopacity="1.0"
     inkscape:pageopacity="0.0"
     inkscape:pageshadow="2"
     inkscape:zoom="0.98994949"
     inkscape:cx="245.16786"
     inkscape:cy="313.57161"
     inkscape:document-units="mm"
     inkscape:current-layer="svg8"
     inkscape:document-rotation="0"
     showgrid="true"
     fit-margin-top="0"
     fit-margin-left="0"
     fit-margin-right="0"
     fit-margin-bottom="0"
     showguides="true"
     inkscape:guide-bbox="true"
     inkscape:window-width="1536"
     inkscape:window-height="915"
     inkscape:window-x="0"
     inkscape:window-y="23"
     inkscape:window-maximized="1">
    <sodipodi:guide
       position="93.27707,46.143508"
       orientation="1,0"
       id="guide61" />
  </sodipodi:namedview>
  <metadata
     id="metadata5">
    <rdf:RDF>
      <cc:Work
         rdf:about="">
        <dc:format>image/svg+xml</dc:format>
        <dc:type
           rdf:resource="http://purl.org/dc/dcmitype/StillImage" />
        <dc:title></dc:title>
      </cc:Work>
    </rdf:RDF>
  </metadata>
  <path
     style="display:inline;fill:#0657ae;fill-opacity:1;stroke-width:0.0114537;paint-order:stroke fill markers"
     d="M 148.09184,284.42092 111.62498,273.67058 69.805021,246.48403 C 46.804044,231.53143 27.434734,218.80351 26.76211,218.19976 25.598246,217.15508 2.2261739,131.47506 2.2261739,128.25313 2.2261739,127.4065 15.514848,99.643137 31.756559,66.556755 54.851349,19.509806 61.424234,6.9130371 61.916907,8.7552106 62.263386,10.050743 62.884526,35.591968 63.297219,65.513488 l 0.750349,54.402762 25.317162,30.41015 c 13.92444,16.72558 25.35683,30.46883 25.40531,30.54055 0.0485,0.0717 28.04411,2.75512 62.21252,5.96312 34.16841,3.20799 62.4941,6.15553 62.94598,6.55008 0.45187,0.39455 -7.67842,17.03031 -18.06733,36.96836 -10.38892,19.93805 -22.2623,42.72861 -26.3853,50.64568 -5.33263,10.23984 -7.99005,14.36327 -9.20678,14.28587 -0.94074,-0.0598 -18.12051,-4.94646 -38.17729,-10.85914 z"
     id="path95"
     transform="scale(0.26458333)" />
  <path
     style="display:inline;fill:#0657ae;fill-opacity:1;stroke-width:0.0114537;paint-order:stroke fill markers"
     d="m 498.85651,260.79114 c -9.81512,-19.02875 -21.7378,-41.98549 -26.49486,-51.01498 -6.02216,-11.43082 -8.24236,-16.54095 -7.30978,-16.82457 0.73667,-0.22402 29.06809,-2.9935 62.9587,-6.1544 33.89062,-3.1609 61.91889,-6.04492 62.28504,-6.40894 0.36616,-0.36402 11.77322,-14.01072 25.34901,-30.32598 l 24.68328,-29.66413 0.65993,-21.853655 c 0.36298,-12.019508 0.71975,-31.172307 0.79284,-42.561777 0.0731,-11.38947 0.41513,-27.388117 0.76009,-35.552551 l 0.6272,-14.8444236 29.98322,61.0374616 29.98321,61.037465 -11.80241,44.21561 c -6.49133,24.31859 -12.13981,44.73613 -12.55219,45.3723 -0.41237,0.63618 -19.95795,13.66893 -43.43461,28.96167 l -42.68484,27.805 -36.84969,10.6868 c -20.26732,5.87776 -37.35791,10.68682 -37.97908,10.68682 -0.62116,0 -9.15994,-15.56897 -18.97506,-34.59772 z"
     id="path97"
     transform="scale(0.26458333)" />
  <path
     style="fill:#01a9d6;fill-opacity:1;stroke-width:0.0114537;paint-order:stroke fill markers"
     d="m 290.62473,273.56389 c -33.89062,-24.72172 -62.25595,-45.32258 -63.03406,-45.7797 -1.12059,-0.65832 0.3707,-4.27062 7.17236,-17.37339 l 8.5871,-16.54227 108.99519,-0.24293 108.99519,-0.24292 8.58629,16.59984 c 5.57072,10.76985 8.23152,16.92392 7.57615,17.52261 -1.4028,1.28145 -124.00671,90.56581 -124.69855,90.80974 -0.3082,0.10867 -28.28906,-20.02927 -62.17967,-44.75098 z"
     id="path99"
     transform="scale(0.26458333)" />
  <path
     style="fill:#0f116e;fill-opacity:1;stroke-width:0.0114537;paint-order:stroke fill markers"
     d="m 331.17311,616.80589 c -11.58901,-3.71498 -21.08772,-7.1329 -21.10825,-7.59537 -0.0812,-1.82981 42.10096,-75.40257 42.81788,-74.68154 2.18819,2.20072 42.16496,74.53327 41.52733,75.13807 -0.55385,0.52534 -32.22524,10.98988 -41.15589,13.59832 -0.55558,0.16227 -10.49207,-2.74449 -22.08107,-6.45948 z"
     id="path103"
     transform="scale(0.26458333)" />
  <path
     style="fill:#0657ae;fill-opacity:1;stroke-width:0.0114537;paint-order:stroke fill markers"
     d="m 329.01052,638.15222 c -12.22284,-1.21206 -23.20045,-2.23484 -24.39468,-2.27285 -1.56862,-0.0499 -4.78523,-3.57487 -11.58821,-12.69903 -5.17928,-6.94646 -10.11158,-12.83051 -10.96066,-13.07566 -0.84907,-0.24516 -4.27118,-0.91236 -7.60469,-1.48267 -5.70385,-0.97583 -6.43662,-1.44035 -12.43836,-7.885 -3.5076,-3.76644 -7.55985,-8.35272 -9.00501,-10.19175 l -2.62756,-3.34367 3.44917,-22.25576 c 1.89704,-12.24067 3.67646,-22.60175 3.95425,-23.02462 0.27779,-0.42288 8.04315,-4.93748 17.25636,-10.03246 l 16.75129,-9.2636 28.95811,4.80303 c 15.92697,2.64166 28.95812,5.08985 28.95812,5.44042 0,0.35057 -9.81202,18.01072 -21.80448,39.24478 -11.99247,21.23407 -21.65205,38.74103 -21.46574,38.90437 0.1863,0.16334 10.11196,3.35965 22.05702,7.1029 11.94505,3.74326 22.08052,7.1396 22.52327,7.54743 0.44274,0.40782 0.67002,3.87944 0.50507,7.71469 l -0.29991,6.97319 z"
     id="path105"
     transform="scale(0.26458333)" />
  <path
     style="fill:#0657ae;fill-opacity:1;stroke-width:0.0114537;paint-order:stroke fill markers"
     d="m 353.97317,632.85454 0.29117,-7.57761 21.97081,-7.04438 c 12.08395,-3.87441 21.97082,-7.36787 21.97082,-7.76324 0,-0.39537 -9.80293,-18.08445 -21.78428,-39.30908 -11.98136,-21.22462 -21.64094,-38.69814 -21.46574,-38.83002 0.17519,-0.13189 13.33087,-2.38628 29.23482,-5.00977 l 28.91629,-4.76997 16.54058,9.21527 c 9.09732,5.0684 16.83258,9.52806 17.18947,9.91035 0.35689,0.38229 2.25429,10.88701 4.21645,23.34383 l 3.56756,22.64876 -8.69684,9.67612 -8.69684,9.67612 -7.64144,1.57437 -7.64144,1.57438 -8.87442,11.55761 c -4.88093,6.35669 -9.19933,12.08542 -9.59645,12.73054 -0.44435,0.72185 -10.15762,2.09619 -25.25686,3.57363 l -24.53483,2.4007 z"
     id="path107"
     transform="scale(0.26458333)" />
  <path
     style="fill:#0075c3;fill-opacity:1;stroke-width:0.0114537;paint-order:stroke fill markers"
     d="m 249.83163,524.54936 c -3.82317,-7.97669 -17.9865,-36.77695 -31.47408,-64.00056 l -24.52286,-49.49747 -5.21047,-32.6193 -5.21046,-32.61929 3.14387,-24.45433 3.14386,-24.45432 17.47704,-33.58757 c 9.61237,-18.47317 17.91986,-33.58757 18.46109,-33.58757 1.65514,0 125.08918,90.21635 125.08918,91.42607 0,0.62218 -13.53682,45.77639 -30.08184,100.34268 l -30.08182,99.21143 -15.62757,8.68245 c -8.59517,4.77535 -16.19618,8.90259 -16.89115,9.17166 -0.81415,0.31522 -3.73593,-4.66914 -8.21479,-14.01388 z m 28.12623,-153.57585 c 4.5109,-7.87542 8.01064,-14.81669 7.77719,-15.42504 -0.48028,-1.25158 -55.39131,-30.86518 -57.23177,-30.86518 -0.80231,0 -1.00745,1.23555 -0.62895,3.78807 0.30894,2.08344 0.86063,10.6066 1.22598,18.94036 l 0.66428,15.15229 19.31839,11.27387 c 10.62511,6.20063 19.62323,11.31453 19.99582,11.36422 0.37258,0.0497 4.36816,-6.35318 8.87906,-14.22859 z"
     id="path109"
     transform="scale(0.26458333)" />
  <path
     style="fill:#0075c3;fill-opacity:1;stroke-width:0.0114537;paint-order:stroke fill markers"
     d="m 431.03593,530.09546 c -8.33376,-4.70163 -15.58042,-8.97318 -16.10368,-9.49233 -0.52327,-0.51915 -14.46187,-45.60898 -30.97467,-100.19964 -27.96022,-92.43536 -29.90782,-99.36956 -28.34303,-100.91211 0.92413,-0.911 28.72708,-21.31871 61.78432,-45.35047 33.05724,-24.03175 60.58909,-44.06951 61.18188,-44.52835 0.70381,-0.54478 7.27033,11.07616 18.92412,33.49049 l 17.8463,34.32474 3.04988,24.12167 3.04989,24.12166 -5.03045,32.17747 -5.03045,32.17747 -31.59075,64.35164 c -17.37492,35.3934 -32.04534,64.33241 -32.60092,64.30892 -0.55558,-0.0235 -7.82868,-3.88952 -16.16244,-8.59116 z m 24.25379,-156.07497 19.45234,-11.27196 0.60139,-8.67855 c 1.76916,-25.53008 1.88204,-29.38669 0.86012,-29.38669 -1.11063,0 -55.6467,28.94972 -57.15535,30.34014 -0.75877,0.69929 15.22805,30.26901 16.36488,30.26901 0.23336,0 9.17784,-5.07238 19.87662,-11.27195 z"
     id="path111"
     transform="scale(0.26458333)" />
  <path
     style="fill:#00a4d0;fill-opacity:1;stroke-width:0.0114537;paint-order:stroke fill markers"
     d="m 72.019407,331.47447 c -16.671679,-12.89355 -29.990374,-23.76263 -29.5971,-24.1535 0.393275,-0.39088 16.150184,-7.5708 35.015355,-15.95539 l 34.300308,-15.2447 37.42052,10.79324 c 20.58129,5.93629 37.56727,10.91078 37.74662,11.05442 0.55933,0.44798 -5.14171,45.35842 -5.86341,46.18956 -0.37585,0.43284 -17.01189,2.81246 -36.96898,5.28804 -19.95708,2.47558 -37.51311,4.71933 -39.01339,4.98611 -2.32913,0.41416 -7.157705,-2.94097 -33.039923,-22.95778 z"
     id="path113"
     transform="scale(0.26458333)" />
  <path
     style="fill:#00a4d0;fill-opacity:1;stroke-width:0.0114537;paint-order:stroke fill markers"
     d="m 562.91776,349.79132 c -21.35867,-2.72772 -38.98602,-5.11157 -39.17189,-5.29744 -0.35693,-0.35693 -6.30442,-46.52177 -6.00899,-46.6422 0.0947,-0.0386 17.08867,-4.93094 37.7644,-10.87187 l 37.59223,-10.8017 34.86204,15.41375 c 19.17412,8.47757 34.87291,15.70065 34.88622,16.05131 0.0264,0.69518 -59.15381,46.75494 -60.35437,46.97363 -0.40463,0.0737 -18.21097,-2.09776 -39.56964,-4.82548 z"
     id="path115"
     transform="scale(0.26458333)" />
  <path
     style="fill:#0f116e;fill-opacity:1;stroke-width:0.0114537;paint-order:stroke fill markers"
     d="m 249.71355,373.51014 c -10.2783,-5.92439 -18.83634,-10.88364 -19.01785,-11.02055 -0.58201,-0.43899 -2.34248,-35.9756 -1.80866,-36.50941 0.66105,-0.66105 53.19656,27.04719 55.99978,29.53535 0.74373,0.66015 -14.81251,28.76701 -15.92133,28.7665 -0.31027,-1.5e-4 -8.97364,-4.84749 -19.25194,-10.77189 z"
     id="path119"
     transform="scale(0.26458333)" />
  <path
     style="fill:#0f116e;fill-opacity:1;stroke-width:0.0114537;paint-order:stroke fill markers"
     d="m 429.80463,374.93837 c -2.81684,-5.13915 -6.27978,-11.66371 -7.69542,-14.49902 l -2.57388,-5.15511 9.28583,-5.06915 c 17.81983,-9.72787 46.01714,-24.52165 46.73886,-24.52165 0.75794,0 -0.24344,28.53267 -1.18824,33.85688 -0.3975,2.23999 -1.65998,3.69573 -4.76571,5.49526 -20.77439,12.03714 -33.5165,19.23671 -34.04597,19.23671 -0.34867,0 -2.93863,-4.20476 -5.75547,-9.34392 z"
     id="path121"
     transform="scale(0.26458333)" />
  <path
     style="fill:#01a9d6;fill-opacity:1;stroke-width:0.0114537;paint-order:stroke fill markers"
     d="m 322.59155,525.66083 c -15.75328,-2.68525 -28.84368,-5.08362 -29.08978,-5.32972 -0.2461,-0.2461 12.85932,-44.34057 29.12314,-97.98772 16.26383,-53.64715 29.78825,-97.32262 30.05427,-97.05659 0.60687,0.60686 59.39972,194.74895 59.10354,195.16801 -0.23414,0.33128 -59.20629,10.32815 -60.04377,10.17853 -0.27779,-0.0496 -13.39412,-2.28726 -29.1474,-4.97251 z"
     id="path126"
     transform="scale(0.26458333)" />
</svg>
