<?xml version="1.0" encoding="UTF-8" standalone="no"?>
<svg
   xmlns:dc="http://purl.org/dc/elements/1.1/"
   xmlns:cc="http://creativecommons.org/ns#"
   xmlns:rdf="http://www.w3.org/1999/02/22-rdf-syntax-ns#"
   xmlns:svg="http://www.w3.org/2000/svg"
   xmlns="http://www.w3.org/2000/svg"
   xmlns:sodipodi="http://sodipodi.sourceforge.net/DTD/sodipodi-0.dtd"
   xmlns:inkscape="http://www.inkscape.org/namespaces/inkscape"
   width="224.08035"
   height="189.4841"
   viewBox="0 0 700.25113 592.13776"
   version="1.1"
   id="svg861"
   sodipodi:docname="bull.svg"
   inkscape:version="1.0.1 (c497b03c, 2020-09-10)">
  <metadata
     id="metadata867">
    <rdf:RDF>
      <cc:Work
         rdf:about="">
        <dc:format>image/svg+xml</dc:format>
        <dc:type
           rdf:resource="http://purl.org/dc/dcmitype/StillImage" />
        <dc:title></dc:title>
      </cc:Work>
    </rdf:RDF>
  </metadata>
  <defs
     id="defs865" />
  <sodipodi:namedview
     pagecolor="#ffffff"
     bordercolor="#666666"
     borderopacity="1"
     objecttolerance="10"
     gridtolerance="10"
     guidetolerance="10"
     inkscape:pageopacity="0"
     inkscape:pageshadow="2"
     inkscape:window-width="1536"
     inkscape:window-height="915"
     id="namedview863"
     showgrid="false"
     fit-margin-top="0"
     fit-margin-left="0"
     fit-margin-right="0"
     fit-margin-bottom="0"
     inkscape:zoom="2.3177082"
     inkscape:cx="70.866611"
     inkscape:cy="89.323118"
     inkscape:window-x="0"
     inkscape:window-y="23"
     inkscape:window-maximized="1"
     inkscape:current-layer="svg861"
     inkscape:snap-global="true"
     inkscape:document-rotation="0"
     showguides="false"
     lock-margins="true"
     scale-x="3.125"
     inkscape:pagecheckerboard="false"
     borderlayer="false"
     showborder="true"
     inkscape:showpageshadow="true"
     units="px" />
  <path
     id="Unnamed"
     fill="none"
     stroke="#000000"
     stroke-width="1"
     d="m 0.56494898,320.32015 c 0,0 62.00000002,-81 144.00000102,-119 0,0 81,-40 215,-48 92,-20 148,-71.000003 163,-152.0000029 0,0 60,91.9999999 -41,158.0000029 0,0 88,118 213,198 24,67 -40,88 -95,135 -34.33,-27 -233,-106.33 -228.25,99.25 -146.75,-18.25 -234.75,-86.25 -234.75,-86.25 0,0 -88.000001,-56 -136.00000102,-185 z m 76.00000002,-6 c 146.000001,-133 255.000001,-81 354.000001,-129 0,0 50,58 50,58 0,0 -43,22 -43,22 0,0 85,19 85,19 0,0 122,103 122,103 0,0 -50,44 -50,44 0,0 -57,-31 -120,-30 -115,3 -108,-118 -108,-118 0,0 -116,96 -290.000001,31 z m 454.000001,-143 c 0,0 43,-42 46,-88.000003 0,0 20.18,36.560003 18,72.000003 -1.78,28.89 -26,58 -26,58 -18,-19 -38,-42 -38,-42 z" />
  <path
     style="fill:none;stroke-width:2.69663"
     d="M 328.46983,582.35859 C 249.42033,565.96081 173.0307,532.31565 122.43173,491.61087 76.765074,454.87393 31.145699,391.55796 7.958324,332.73118 l -5.41,-13.72534 35.806063,-35.67025 c 38.979718,-38.83185 63.796443,-57.74206 99.176873,-75.57225 49.75166,-25.07269 128.52916,-44.71785 206.29213,-51.44416 11.86519,-1.02631 31.2809,-4.89865 43.14606,-8.60522 68.38244,-21.36197 112.07706,-61.608657 131.04963,-120.708438 l 6.05981,-18.8764061 4.78681,10.7865191 c 7.70691,17.366584 11.08525,43.568434 7.82309,60.674168 -4.66137,24.442507 -14.55062,41.039187 -36.87787,61.890377 l -20.39128,19.04319 15.73315,19.53322 c 40.17647,49.88031 130.11982,133.17306 179.79388,166.4995 19.67991,13.20328 22.14669,17.60531 21.91147,39.10112 -0.27563,25.19088 -12.36325,40.19903 -61.99997,76.98022 l -35.25734,26.12597 -24.0685,-11.64794 c -32.97407,-15.95775 -63.45966,-23.4534 -95.52916,-23.48825 -29.9615,-0.0325 -41.81244,2.81388 -61.93763,14.87657 -27.87578,16.70825 -44.43393,50.33915 -47.74403,96.97171 -1.37747,19.40572 -2.48112,23.74479 -6.00303,23.60075 -2.3734,-0.0972 -18.50531,-3.12 -35.84865,-6.71765 z M 621.07517,411.00928 c 13.62387,-12.01141 24.98519,-22.62938 25.24734,-23.5955 0.26219,-0.9661 -27.1694,-24.95566 -60.95903,-53.31013 l -61.43572,-51.55356 -38.19537,-8.44644 c -21.0075,-4.64553 -39.0815,-8.46247 -40.16456,-8.48209 -1.08304,-0.0187 6.85743,-4.93063 17.64546,-10.91338 17.53885,-9.72659 19.2511,-11.37822 16.17975,-15.60684 -9.27484,-12.7696 -46.61959,-54.343 -48.8155,-54.343 -1.37837,0 -10.76875,2.98047 -20.86746,6.62331 -21.30444,7.68491 -49.08713,13.09444 -98.24625,19.12934 -73.04285,8.96694 -124.30744,24.5735 -168.82141,51.39457 -22.92747,13.81453 -64.613596,46.07912 -66.379565,51.37706 -1.163968,3.49191 13.675875,8.80719 49.133565,17.59853 34.84872,8.64038 105.20356,8.70975 139.43569,0.1375 30.47828,-7.63222 61.51347,-19.74356 81.345,-31.74453 8.71028,-5.271 16.22837,-9.19209 16.7069,-8.71359 0.4785,0.47853 2.17763,9.05525 3.77582,19.05943 4.95956,31.04566 12.57875,47.20803 30.86015,65.46272 21.14988,21.11894 32.47675,25.11597 79.78656,28.15503 39.59372,2.54338 67.55622,8.6715 96.19388,21.08144 10.12709,4.38847 19.40087,8.10281 20.60847,8.25406 1.20756,0.15125 13.3424,-9.5525 26.96628,-21.56393 z"
     id="path869" />
  <path
     style="fill:none;stroke-width:2.69663"
     d="m 550.3287,190.17918 -16.75628,-18.85381 10.55062,-12.8341 c 14.16744,-17.23359 22.03894,-30.81549 28.998,-50.03459 l 5.80857,-16.041658 4.27043,10.672908 c 6.43041,16.07116 10.71857,43.62 8.79075,56.4755 -1.81225,12.08497 -15.30778,41.50391 -21.3334,46.50475 -2.77575,2.30366 -7.30919,-1.23972 -20.32869,-15.889 z"
     id="path871" />
  <path
     style="fill:none;fill-opacity:1;stroke-width:2.69663"
     d="M 322.10617,579.34712 C 245.05652,561.66802 173.60366,529.62612 124.31222,490.64952 87.163865,461.2749 45.021768,406.83255 20.389506,356.39424 1.2404774,317.18374 -0.24661682,322.83933 39.251274,284.66019 c 50.119484,-48.4461 79.380606,-68.6371 126.450386,-87.25432 45.31996,-17.92513 99.54887,-30.57833 164.49438,-38.38138 46.47863,-5.5843 62.247,-9.8267 94.38203,-25.39301 45.57788,-22.07807 74.62838,-53.522014 91.97154,-99.548967 l 8.50437,-22.569721 5.01675,14.479834 c 3.34903,9.666281 5.02547,22.099612 5.04294,37.401181 0.0356,31.224928 -7.47006,47.076553 -36.25394,76.565963 l -21.44241,21.968 23.29063,26.71468 c 45.04678,51.6693 110.19284,112.18183 164.67897,152.9661 26.34653,19.72103 30.2024,25.25628 30.2024,43.35663 0,24.20287 -15.50456,42.55575 -69.09465,81.78803 l -27.29688,19.98353 -22.63972,-10.60931 c -36.52359,-17.11553 -60.46731,-22.70566 -98.0474,-22.89103 -29.57085,-0.14594 -33.67844,0.45778 -47.66335,7.00447 -39.09343,18.30075 -54.7805,46.55828 -63.00356,113.49003 -1.90784,15.52906 -2.31644,15.57922 -45.73759,5.61622 z M 617.64973,415.70649 c 10.97913,-9.419 22.38903,-19.86731 25.35531,-23.21841 l 5.39325,-6.09287 -12.13481,-10.79816 c -6.67416,-5.939 -34.39131,-29.55665 -61.59362,-52.48375 l -49.45882,-41.68556 -36.80034,-8.08508 c -20.24019,-4.4468 -37.12466,-8.40939 -37.521,-8.80576 -0.39638,-0.39637 5.19647,-3.94119 12.42853,-7.87737 20.91163,-11.38154 21.55975,-13.2469 9.65169,-27.77911 -5.63238,-6.87357 -16.92844,-19.72097 -25.10235,-28.54977 -16.83462,-18.18341 -14.5015,-17.87466 -51.60409,-6.82888 -12.60675,3.75314 -41.73034,9.44561 -64.71912,12.64993 -87.23203,12.15896 -135.61118,24.9773 -175.2809,46.4417 -25.27,13.67304 -80.898877,55.28946 -80.898877,60.52111 0,4.75311 7.315063,7.71323 40.449437,16.36823 31.23813,8.15972 91.59739,11.33869 126.33537,6.65375 27.87731,-3.75962 73.59359,-18.80934 99.43975,-32.7354 10.71562,-5.77361 19.98015,-9.65406 20.58781,-8.62317 0.60766,1.03087 1.93453,7.33499 2.94856,14.00915 1.01406,6.67417 4.37569,20.02248 7.47025,29.66292 4.78922,14.91972 8.47372,20.35456 24.75947,36.52175 22.84816,22.68178 26.81809,24.14847 80.08928,29.58875 42.40288,4.33038 69.81797,10.42709 95.44816,21.22628 8.89887,3.7495 18.11822,6.86856 20.48737,6.93125 2.36919,0.0625 13.29053,-7.5925 24.26969,-17.01153 z"
     id="path873" />
  <path
     style="fill:none;fill-opacity:1;stroke-width:2.69663"
     d="m 550.13886,187.63213 -13.84925,-15.9864 13.72471,-18.8107 c 7.54863,-10.34588 17.15357,-26.93789 21.34432,-36.87113 4.19075,-9.93324 8.3484,-16.881147 9.23918,-15.43979 4.02607,6.51426 9.82294,35.50799 9.82294,49.13031 0,11.57886 -2.13587,19.47197 -9.33287,34.48962 -5.19135,10.83247 -11.05622,19.47449 -13.21635,19.47449 -2.13587,0 -10.11559,-7.19388 -17.73268,-15.9864 z"
     id="path875" />
  <path
     style="fill:none;stroke-width:0.674156"
     d="m 348.42073,584.70115 c -7.33975,-1.32503 -23.73156,-5.0651 -39.47871,-9.00769 C 238.05444,557.94546 169.81401,526.35105 124.79763,490.43708 93.534968,465.49583 59.650211,424.62712 34.21269,381.18174 26.572674,368.13318 11.50634,337.99255 9.2201152,331.1834 c -1.3451087,-4.00619 -1.6814056,-6.06213 -1.3918568,-8.50903 0.744225,-6.28925 3.0339886,-9.25701 20.6569266,-26.77353 34.20563,-33.99908 59.181614,-55.33097 82.254575,-70.25329 35.55576,-22.99552 83.45273,-40.99749 142.96405,-53.73273 23.72688,-5.07748 46.97965,-8.87079 78.8337,-12.86043 46.41244,-5.81304 63.66585,-10.71243 96.48385,-27.39816 30.06803,-15.28756 51.57637,-33.94772 68.9109,-59.785567 6.33206,-9.438231 15.50091,-28.420338 21.71616,-44.958605 2.85659,-7.601124 5.27575,-13.915123 5.37594,-14.031109 0.39937,-0.462406 6.43293,18.735359 7.37606,23.469311 3.44919,17.313456 3.04747,40.938247 -0.93572,55.030306 -2.94328,10.412994 -9.00044,21.055734 -18.42191,32.368334 -2.82284,3.38948 -11.98072,13.24903 -20.35081,21.91012 -8.37012,8.66108 -15.14078,16.10616 -15.04597,16.5446 0.21313,0.98514 26.75491,31.42824 38.9791,44.70845 42.60809,46.28894 96.4944,95.21705 149.62031,135.85339 25.63778,19.61047 29.77172,25.98478 28.81969,44.43778 -0.61182,11.85841 -4.65925,21.10713 -14.2711,32.61097 -11.27269,13.49153 -25.91103,25.64753 -68.73959,57.08294 -11.81619,8.67284 -12.857,9.29212 -14.49441,8.62403 -0.97022,-0.39588 -8.89325,-4.04541 -17.60675,-8.1101 -43.30184,-20.19953 -65.96806,-25.10534 -112.00544,-24.24218 -21.11843,0.39593 -23.62325,0.79806 -34.41034,5.52428 -39.66203,17.37737 -56.14041,44.59472 -64.90734,107.20769 -2.05732,14.693 -2.58988,16.72418 -4.85144,18.50315 -2.12663,1.67281 -7.19475,1.77088 -15.35797,0.29719 z M 600.26004,429.49021 c 6.95263,-4.56303 14.2486,-10.43719 26.72366,-21.51578 10.15059,-9.01435 21.78269,-20.60372 21.69237,-21.61275 -0.0878,-0.98019 -25.30071,-22.62294 -88.68596,-76.12777 l -34.45757,-29.08633 -17.11547,-3.762 c -29.02831,-6.38044 -53.44156,-11.96133 -55.15293,-12.608 l -1.63294,-0.61704 2.30709,-1.54496 c 1.26891,-0.84972 5.4925,-3.32279 9.38575,-5.4957 14.04244,-7.83736 17.5281,-10.80684 17.5281,-14.93233 0,-4.06856 -2.60953,-7.91559 -15.44269,-22.76584 -11.58863,-13.41012 -26.20525,-29.07601 -28.77722,-30.84303 -6.08634,-4.18148 -10.98934,-4.03436 -27.60953,0.82843 -27.44522,8.03001 -45.49328,11.71903 -87.27169,17.83835 -81.49155,11.93613 -127.54144,24.46751 -165.50563,45.0384 -22.16603,12.01066 -73.624815,49.65311 -79.87265,58.42738 -4.087972,5.74103 1.577931,8.87047 29.98112,16.55938 28.89696,7.82259 57.29362,11.10212 96.13045,11.10212 32.62499,0 47.09637,-1.90375 75.07232,-9.876 23.54364,-6.70919 40.25799,-13.15062 63.74495,-24.56623 9.08429,-4.41532 17.47491,-8.21229 18.64588,-8.43771 l 2.12906,-0.40987 1.03638,4.95952 c 0.57,2.72773 1.67309,8.29659 2.45131,12.37524 1.61169,8.44724 5.41,22.67449 7.91744,29.65627 4.48537,12.48931 8.83165,18.40341 25.53318,34.74372 21.29916,20.83847 24.62841,22.07981 74.0845,27.62328 49.32335,5.52853 71.88663,10.3555 97.75282,20.91225 10.54934,4.3055 19.58572,7.33244 21.99215,7.36675 1.82107,0.025 3.70582,-0.79491 7.41575,-3.22975 z"
     id="path870" />
  <path
     style="fill:#008000;stroke-width:0.674156"
     d=""
     id="path872" />
  <path
     style="fill:none;stroke-width:0.674156"
     d=""
     id="path874" />
  <path
     style="opacity:1;mix-blend-mode:lighten;fill:#b7094c;fill-opacity:1;stroke:none;stroke-width:0.03543306;stroke-miterlimit:4;stroke-dasharray:none;stroke-opacity:1;paint-order:stroke fill markers"
     d="M 344.36157,586.30533 C 262.00984,571.63952 182.51004,538.80908 126.97202,496.53158 80.161771,460.89799 34.728896,399.46918 8.5209215,336.37643 0.98242668,318.22837 -0.27288032,322.15855 20.382298,299.24016 c 36.79296,-40.82441 80.110512,-74.64883 121.057922,-94.52783 49.70371,-24.12996 126.48141,-42.74729 202.2472,-49.04161 56.27131,-4.6748 114.95072,-34.76115 145.44381,-74.572563 14.79025,-19.309997 24.99931,-40.528888 31.12834,-64.69843 l 2.99969,-11.829178 4.12035,9.132549 c 8.89421,19.713671 11.71175,33.903993 10.84365,54.613671 -0.7464,17.807278 -4.64912,31.178219 -13.44781,46.072921 -6.57363,11.12802 -22.51684,28.17328 -35.11231,37.53934 -5.01697,3.73066 -9.12178,7.18549 -9.12178,7.67739 0,0.49192 5.66243,7.84107 12.58318,16.33148 53.369,65.47343 127.25628,133.8293 188.67903,174.55406 11.19822,7.42469 11.92488,8.20262 13.72997,14.69841 4.63585,16.68253 3.7591,29.88246 -2.87356,43.26328 -8.12069,16.38272 -19.24737,26.90665 -61.10737,57.79712 -13.7191,10.12397 -26.55275,19.68916 -28.51922,21.25594 l -3.57544,2.84872 -7.88525,-4.86681 c -17.37059,-10.72119 -48.55013,-22.41944 -74.09559,-27.79991 -17.21975,-3.62688 -45.10482,-4.95663 -59.57435,-2.84088 -55.04419,8.0485 -83.87769,46.81563 -87.45975,117.5911 l -0.87878,17.36303 -3.50019,-0.1275 c -1.92512,-0.07 -11.69122,-1.58622 -21.70247,-3.36909 z M 621.21382,409.63699 c 13.96535,-12.32016 24.88669,-22.85609 24.26966,-23.41322 -1.10384,-0.99665 -86.63319,-73.06651 -110.33537,-92.97224 l -12.13482,-10.19115 -39.10112,-8.63312 c -21.50563,-4.74823 -39.51538,-8.99542 -40.02163,-9.43821 -0.50628,-0.4428 7.83866,-5.34894 18.54428,-10.90254 10.70563,-5.5536 19.31088,-10.53685 19.12275,-11.07388 -0.18812,-0.53703 -10.35328,-12.58394 -22.58925,-26.7709 -12.23593,-14.18695 -23.4764,-27.3076 -24.97881,-29.15699 l -2.73162,-3.36252 -11.55585,4.78356 c -24.97187,10.33714 -46.25934,14.93518 -100.95843,21.80674 -20.39326,2.56191 -45.87641,6.24287 -56.62922,8.17994 -65.8083,11.85503 -120.7072,38.48249 -174.921966,84.84193 -6.847525,5.85537 -12.004828,11.06479 -11.460675,11.57651 3.798681,3.57212 49.474581,15.84606 72.450051,19.46859 18.71834,2.95134 60.01632,4.02922 79.00631,2.06206 46.54635,-4.82168 93.38465,-20.8229 128.497,-43.89795 5.11556,-3.36183 9.42621,-6.11243 9.57921,-6.11243 0.15313,0 0.64685,5.91573 1.09747,13.14606 3.01722,48.41267 26.86988,84.00204 64.83616,96.73879 12.96366,4.349 24.44925,6.04791 40.96959,6.06003 35.86444,0.025 75.08216,8.7045 108.82328,24.08069 6.67416,3.04147 12.74157,5.54131 13.48313,5.55522 0.74159,0.0125 12.77453,-10.05484 26.73987,-22.37497 z"
     id="path878" />
  <path
     style="fill:#b7094c;fill-opacity:1;stroke:none;stroke-width:0.03125;stroke-miterlimit:4;stroke-dasharray:none;stroke-opacity:1"
     d="m 559.95379,201.82442 c -11.57431,-12.14923 -26.82815,-29.44022 -26.82815,-30.41105 0,-0.42919 3.09059,-4.30442 6.86797,-8.61162 15.42518,-17.58866 30.05556,-43.78223 34.67581,-62.08196 1.35478,-5.365974 2.79028,-10.083374 3.19003,-10.483115 1.12578,-1.12579 9.97678,23.128415 12.43197,34.067115 5.30009,23.61377 3.80828,40.32205 -5.32216,59.60803 -4.00822,8.46642 -15.02825,27.01372 -16.05044,27.01372 -0.16218,0 -4.19628,-4.0955 -8.96503,-9.10112 z"
     id="path880" />
</svg>
