<?xml version="1.0" encoding="UTF-8" standalone="no"?>
<svg
   xmlns:dc="http://purl.org/dc/elements/1.1/"
   xmlns:cc="http://creativecommons.org/ns#"
   xmlns:rdf="http://www.w3.org/1999/02/22-rdf-syntax-ns#"
   xmlns:svg="http://www.w3.org/2000/svg"
   xmlns="http://www.w3.org/2000/svg"
   xmlns:sodipodi="http://sodipodi.sourceforge.net/DTD/sodipodi-0.dtd"
   xmlns:inkscape="http://www.inkscape.org/namespaces/inkscape"
   width="1.1755366in"
   height="1.1736459in"
   viewBox="0 0 352.662 352.09477"
   version="1.1"
   id="svg834"
   sodipodi:docname="ic_launcher.svg"
   inkscape:version="1.0.1 (c497b03c, 2020-09-10)">
  <metadata
     id="metadata840">
    <rdf:RDF>
      <cc:Work
         rdf:about="">
        <dc:format>image/svg+xml</dc:format>
        <dc:type
           rdf:resource="http://purl.org/dc/dcmitype/StillImage" />
        <dc:title></dc:title>
      </cc:Work>
    </rdf:RDF>
  </metadata>
  <defs
     id="defs838" />
  <sodipodi:namedview
     pagecolor="#ffffff"
     bordercolor="#666666"
     borderopacity="1"
     objecttolerance="10"
     gridtolerance="10"
     guidetolerance="10"
     inkscape:pageopacity="0"
     inkscape:pageshadow="2"
     inkscape:window-width="1536"
     inkscape:window-height="915"
     id="namedview836"
     showgrid="false"
     fit-margin-top="0"
     fit-margin-left="0"
     fit-margin-right="0"
     fit-margin-bottom="0"
     inkscape:zoom="4.4696509"
     inkscape:cx="42.373062"
     inkscape:cy="67.966285"
     inkscape:window-x="0"
     inkscape:window-y="23"
     inkscape:window-maximized="1"
     inkscape:current-layer="svg834"
     inkscape:document-rotation="0" />
  <path
     id="Selection"
     fill="none"
     stroke="#000000"
     stroke-width="1"
     d="m 136.44384,196.23759 c 0,0 0,90 0,90 0,0 20,0 20,0 0,0 -40,30 -40,30 0,0 -39.999997,-30 -39.999997,-30 0,0 20,0 20,0 0,0 0,-261.449998 0,-266.549998 -40.02,17.11 -64.36,45.94 -81.46,85.959998 -32.68,76.42 -8.7399986,163.88 58.44,213.12 14.45,10.6 30.709997,18.43 47.679997,24.04 12.84,4.24 34.25,8.62 47.68,8.78 16.3,0.19 47.78,-3.45 47.78,-4.56 0,-2.34 -0.12,-150.79 -0.12,-150.79 0,0 -80,0 -80,0 z m 80,-40 c 0,0 0,-89.999998 0,-89.999998 0,0 -20,0 -20,0 0,0 40,-30 40,-30 0,0 40,30 40,30 0,0 -20,0 -20,0 0,0 -0.28,232.559998 0.18,266.219998 17.72,-8.91 29.93,-18.32 43.92,-32.31 51.44,-51.44 66.01,-129.14 36.57,-195.76 -10.76,-24.339998 -22.66,-39.229998 -41.59,-57.699998 -14.75,-14.4 -34.73,-26.69 -53.96,-34.14 -17.48,-6.7800002 -41.47,-12.28000016 -60.23,-12.04000016 0,0 -20.03,0.55999996 -20.03,0.55999996 -21.02,3.31 -24.86,5.17 -24.86,5.17 0,0 0,150.1799982 0,150.1799982 0,0 80,-0.18 80,-0.18 z" />
  <path
     style="fill:#e56b6f;fill-opacity:1;stroke-width:0.699161"
     d="M 156.72968,349.75813 C 121.54273,344.9604 92.016565,332.72327 67.044575,312.58806 58.01653,305.30865 43.986333,290.85989 37.278501,281.93397 20.765367,259.96042 9.4135337,234.49939 4.5053624,208.4271 2.3213074,196.82535 1.6849429,189.42385 1.678688,175.55028 1.6655914,146.50117 7.5753687,122.24521 21.575243,93.887333 37.302173,62.031166 58.392522,39.952831 87.284449,25.099956 c 3.825686,-1.966726 7.207883,-3.575865 7.51599,-3.575865 0.308095,0 0.560189,59.298201 0.560189,131.773779 v 131.77379 l -10.662218,0.193 -10.662215,0.193 21.198092,15.95125 21.198093,15.95125 20.89761,-15.60167 c 11.49368,-8.58092 20.91057,-15.83764 20.9264,-16.12604 0.0159,-0.28841 -4.69055,-0.52438 -10.45863,-0.52438 h -10.48743 v -44.04719 -44.04719 h 39.15306 39.15306 v 74.73451 74.73452 l -1.58501,0.39781 c -2.94346,0.73875 -18.9741,2.51066 -29.17811,3.2251 -12.85126,0.89982 -19.58609,0.8166 -28.12365,-0.3475 z"
     id="path838" />
  <path
     style="fill:#52b788;fill-opacity:1;stroke-width:0.699161"
     d="M 257.41719,274.09628 C 257.21128,196.05957 257.20893,174.77493 257.4,117.15267 l 0.16625,-50.146643 10.50214,-0.193 10.50214,-0.193001 -20.02251,-15.031981 c -11.01238,-8.267586 -20.57642,-15.298803 -21.2534,-15.624926 -0.96738,-0.466014 -5.69032,2.752052 -22.06148,15.031978 l -20.8306,15.624929 10.607,0.193001 10.607,0.193 v 44.378563 44.37856 H 176.46339 137.31033 V 81.356641 6.9501372 l 2.27228,-0.7241177 c 10.10327,-3.2196617 32.04295,-5.41318087 47.01863,-4.7009014 22.92055,1.0901573 50.32712,8.5714309 70.91618,19.3582569 20.7639,10.878426 37.82192,24.954085 55.08457,45.4538 18.1834,21.593103 30.67144,49.438125 36.34336,81.036035 1.61563,9.00046 1.82722,12.05964 1.88604,27.26731 0.0713,18.39734 -0.68629,25.78442 -4.15808,40.55138 -10.86828,46.22757 -41.24386,87.7279 -81.73005,111.66289 -3.44111,2.03434 -6.50868,3.69879 -6.81683,3.69879 -0.30816,0 -0.62731,-25.40578 -0.70924,-56.4573 z"
     id="path840" />
</svg>
